<svg xmlns="http://www.w3.org/2000/svg" width="429.64" height="11.615" viewBox="-681.086 166.901 429.64 11.615" enable-background="new -681.086 166.901 429.64 11.615"><path fill="#fff" d="M-681.086 178.324l4.398-11.224h1.633l4.688 11.224h-1.727l-1.336-3.399h-4.789l-1.258 3.399h-1.609zm3.305-4.609h3.883l-1.195-3.108c-.365-.943-.636-1.719-.812-2.328-.146.721-.352 1.435-.617 2.145l-1.259 3.291zm19.672 1.003l1.43-.123c.067.562.225 1.022.473 1.383.247.359.631.65 1.152.873.521.222 1.106.332 1.758.332.578 0 1.088-.084 1.531-.252.442-.169.772-.399.988-.693.216-.293.324-.614.324-.961 0-.353-.104-.66-.312-.922-.208-.264-.552-.483-1.031-.662-.308-.118-.987-.301-2.039-.549-1.052-.246-1.789-.48-2.211-.699-.547-.281-.955-.629-1.223-1.045-.269-.416-.402-.881-.402-1.397 0-.565.164-1.096.492-1.589.328-.492.807-.866 1.438-1.122.63-.255 1.331-.383 2.102-.383.849 0 1.598.134 2.246.401.648.269 1.147.664 1.496 1.184.349.521.536 1.109.562 1.769l-1.453.107c-.078-.709-.343-1.245-.793-1.607-.451-.362-1.116-.544-1.996-.544-.917 0-1.585.165-2.004.494s-.629.727-.629 1.189c0 .404.148.735.445.996.292.261 1.053.526 2.285.8 1.231.272 2.077.512 2.535.716.667.301 1.159.684 1.477 1.145.317.463.477.994.477 1.596 0 .599-.175 1.16-.523 1.688-.349.528-.851.939-1.504 1.232-.654.293-1.39.44-2.207.44-1.037 0-1.905-.148-2.605-.445-.701-.295-1.25-.741-1.648-1.336-.401-.592-.611-1.266-.631-2.016zm14.726-1.862c0-1.862.51-3.32 1.531-4.375 1.021-1.054 2.338-1.58 3.953-1.58 1.057 0 2.01.248 2.859.742.849.496 1.496 1.187 1.941 2.071.445.886.668 1.89.668 3.013 0 1.139-.234 2.157-.703 3.056-.469.897-1.133 1.579-1.992 2.041s-1.787.692-2.781.692c-1.078 0-2.042-.255-2.891-.766-.849-.51-1.492-1.207-1.93-2.09-.436-.884-.655-1.817-.655-2.804zm1.563.025c0 1.353.371 2.418 1.113 3.196.742.777 1.673 1.167 2.793 1.167 1.141 0 2.079-.394 2.816-1.179.737-.787 1.105-1.901 1.105-3.347 0-.913-.158-1.711-.473-2.393-.315-.681-.776-1.209-1.383-1.585-.607-.375-1.288-.562-2.043-.562-1.073 0-1.996.361-2.77 1.083s-1.158 1.929-1.158 3.62zm15.328 5.443v-11.224h1.555l6.016 8.812v-8.812h1.453v11.224h-1.555l-6.016-8.82v8.82h-1.453zm18.797 0v-4.755l-4.414-6.469h1.844l2.258 3.383c.417.634.805 1.267 1.164 1.898.344-.587.76-1.248 1.25-1.982l2.219-3.301h1.766l-4.57 6.471v4.754l-1.517.001zm19.601 0v-11.224h4.32c.76 0 1.341.035 1.742.106.562.092 1.034.267 1.414.524.38.258.686.619.918 1.082.231.465.348.976.348 1.531 0 .955-.31 1.764-.93 2.424-.62.66-1.74.991-3.359.991h-2.938v4.563l-1.515.003zm1.516-5.887h2.961c.979 0 1.674-.179 2.086-.535.411-.357.617-.86.617-1.508 0-.471-.121-.873-.363-1.207-.242-.334-.562-.555-.957-.662-.255-.065-.727-.1-1.414-.1h-2.93v4.012zm13.414 5.887v-11.224h1.516v11.224h-1.516zm16.359-3.934l1.516.375c-.318 1.219-.89 2.149-1.715 2.791-.826.641-1.835.961-3.027.961-1.234 0-2.238-.246-3.012-.74-.774-.492-1.362-1.205-1.766-2.139-.404-.935-.605-1.938-.605-3.01 0-1.169.228-2.188.684-3.059.456-.87 1.104-1.531 1.945-1.983.841-.452 1.767-.678 2.777-.678 1.146 0 2.109.286 2.891.856.781.572 1.325 1.377 1.633 2.412l-1.492.346c-.266-.816-.651-1.412-1.156-1.784-.505-.373-1.141-.56-1.906-.56-.88 0-1.616.207-2.207.62-.591.414-1.007.97-1.246 1.665-.24.697-.359 1.416-.359 2.155 0 .955.142 1.788.426 2.5.284.712.725 1.243 1.324 1.596s1.247.528 1.945.528c.849 0 1.567-.24 2.156-.721.587-.476.986-1.188 1.194-2.131zm10.297 3.934v-9.899h-3.773v-1.324h9.078v1.324h-3.789v9.899h-1.516zm18.375-11.223h1.516v6.484c0 1.128-.13 2.023-.391 2.688-.261.664-.73 1.203-1.41 1.619s-1.572.625-2.676.625c-1.073 0-1.951-.182-2.633-.543-.683-.363-1.169-.888-1.461-1.574s-.438-1.625-.438-2.813v-6.485h1.516v6.477c0 .975.092 1.693.277 2.154.185.463.502.818.953 1.068.45.25 1.001.375 1.652.375 1.114 0 1.909-.248 2.383-.742.474-.496.711-1.447.711-2.856l.001-6.477zm8.063 11.223v-11.224h5.078c1.021 0 1.797.101 2.328.301.531.203.956.559 1.273 1.068s.477 1.074.477 1.692c0 .796-.263 1.468-.789 2.014-.526.546-1.339.894-2.438 1.041.401.189.706.375.914.56.442.397.862.896 1.258 1.492l1.992 3.056h-1.906l-1.516-2.335c-.443-.674-.808-1.189-1.094-1.547-.287-.357-.543-.607-.77-.75-.227-.144-.457-.243-.691-.299-.172-.037-.453-.055-.844-.055h-1.758v4.984l-1.514.002zm1.515-6.27h3.258c.692 0 1.234-.07 1.625-.21.391-.14.688-.364.891-.674.203-.31.305-.646.305-1.007 0-.531-.197-.967-.59-1.309-.394-.343-1.015-.514-1.863-.514h-3.625l-.001 3.714zm14.047 6.27v-11.224h8.281v1.324h-6.766v3.438h6.336v1.317h-6.336v3.821h7.031v1.325l-8.546-.001zm14.125-3.606l1.43-.123c.067.562.225 1.022.473 1.383.247.359.631.65 1.152.873.521.222 1.106.332 1.758.332.578 0 1.088-.084 1.531-.252.442-.169.772-.399.988-.693.216-.293.324-.614.324-.961 0-.353-.104-.66-.312-.922-.208-.264-.552-.483-1.031-.662-.308-.118-.987-.301-2.039-.549-1.052-.246-1.789-.48-2.211-.699-.547-.281-.955-.629-1.223-1.045-.269-.416-.402-.881-.402-1.397 0-.565.164-1.096.492-1.589.328-.492.807-.866 1.438-1.122.63-.255 1.331-.383 2.102-.383.849 0 1.598.134 2.246.401.648.269 1.147.664 1.496 1.184.349.521.536 1.109.562 1.769l-1.453.107c-.078-.709-.343-1.245-.793-1.607-.451-.362-1.116-.544-1.996-.544-.917 0-1.585.165-2.004.494s-.629.727-.629 1.189c0 .404.148.735.445.996.292.261 1.053.526 2.285.8 1.231.272 2.077.512 2.535.716.667.301 1.159.684 1.477 1.145.317.463.477.994.477 1.596 0 .599-.175 1.16-.523 1.688-.349.528-.851.939-1.504 1.232-.654.293-1.39.44-2.207.44-1.037 0-1.905-.148-2.605-.445-.701-.295-1.25-.741-1.648-1.336-.4-.592-.61-1.266-.631-2.016zm31.805-.328l1.516.375c-.318 1.219-.89 2.149-1.715 2.791-.826.641-1.835.961-3.027.961-1.234 0-2.238-.246-3.012-.74-.774-.492-1.362-1.205-1.766-2.139-.404-.935-.605-1.938-.605-3.01 0-1.169.228-2.188.684-3.059.456-.87 1.104-1.531 1.945-1.983.841-.452 1.767-.678 2.777-.678 1.146 0 2.109.286 2.891.856.781.572 1.325 1.377 1.633 2.412l-1.492.346c-.266-.816-.651-1.412-1.156-1.784-.505-.373-1.141-.56-1.906-.56-.88 0-1.616.207-2.207.62-.591.414-1.007.97-1.246 1.665-.24.697-.359 1.416-.359 2.155 0 .955.142 1.788.426 2.5.284.712.725 1.243 1.324 1.596s1.247.528 1.945.528c.849 0 1.567-.24 2.156-.721.587-.476.985-1.188 1.194-2.131zm7.32 3.934v-11.224h1.516v9.9h5.641v1.325l-7.157-.001zm11.703 0l4.398-11.224h1.633l4.688 11.224h-1.727l-1.336-3.399h-4.789l-1.258 3.399h-1.609zm3.305-4.609h3.883l-1.195-3.108c-.365-.943-.636-1.719-.812-2.328-.146.721-.352 1.435-.617 2.145l-1.259 3.291zm12.109 1.003l1.43-.123c.067.562.225 1.022.473 1.383.247.359.631.65 1.152.873.521.222 1.106.332 1.758.332.578 0 1.088-.084 1.531-.252.442-.169.772-.399.988-.693.216-.293.324-.614.324-.961 0-.353-.104-.66-.312-.922-.208-.264-.552-.483-1.031-.662-.308-.118-.987-.301-2.039-.549-1.052-.246-1.789-.48-2.211-.699-.547-.281-.955-.629-1.223-1.045-.269-.416-.402-.881-.402-1.397 0-.565.164-1.096.492-1.589.328-.492.807-.866 1.438-1.122.63-.255 1.331-.383 2.102-.383.849 0 1.598.134 2.246.401.648.269 1.147.664 1.496 1.184.349.521.536 1.109.562 1.769l-1.453.107c-.078-.709-.343-1.245-.793-1.607-.451-.362-1.116-.544-1.996-.544-.917 0-1.585.165-2.004.494-.419.329-.629.727-.629 1.189 0 .404.148.735.445.996.292.261 1.053.526 2.285.8 1.231.272 2.077.512 2.535.716.667.301 1.159.684 1.477 1.145.317.463.477.994.477 1.596 0 .599-.175 1.16-.523 1.688-.349.528-.851.939-1.504 1.232-.654.293-1.39.44-2.207.44-1.037 0-1.905-.148-2.605-.445-.701-.295-1.25-.741-1.648-1.336-.4-.592-.61-1.266-.631-2.016zm14.672 0l1.43-.123c.067.562.225 1.022.473 1.383.247.359.631.65 1.152.873.521.222 1.106.332 1.758.332.578 0 1.088-.084 1.531-.252.442-.169.772-.399.988-.693.216-.293.324-.614.324-.961 0-.353-.104-.66-.312-.922-.208-.264-.552-.483-1.031-.662-.308-.118-.987-.301-2.039-.549-1.052-.246-1.789-.48-2.211-.699-.547-.281-.955-.629-1.223-1.045-.269-.416-.402-.881-.402-1.397 0-.565.164-1.096.492-1.589.328-.492.807-.866 1.438-1.122.63-.255 1.331-.383 2.102-.383.849 0 1.598.134 2.246.401.648.269 1.147.664 1.496 1.184.349.521.536 1.109.562 1.769l-1.453.107c-.078-.709-.343-1.245-.793-1.607-.451-.362-1.116-.544-1.996-.544-.917 0-1.585.165-2.004.494s-.629.727-.629 1.189c0 .404.148.735.445.996.292.261 1.053.526 2.285.8 1.231.272 2.077.512 2.535.716.667.301 1.159.684 1.477 1.145.317.463.477.994.477 1.596 0 .599-.175 1.16-.523 1.688-.349.528-.851.939-1.504 1.232-.654.293-1.39.44-2.207.44-1.037 0-1.905-.148-2.605-.445-.701-.295-1.25-.741-1.648-1.336-.4-.592-.61-1.266-.631-2.016zm15.446 3.606v-11.224h1.516v11.224h-1.516zm16.359-3.934l1.516.375c-.318 1.219-.89 2.149-1.715 2.791-.826.641-1.835.961-3.027.961-1.234 0-2.238-.246-3.012-.74-.774-.492-1.362-1.205-1.766-2.139-.404-.935-.605-1.938-.605-3.01 0-1.169.228-2.188.684-3.059.456-.87 1.104-1.531 1.945-1.983s1.767-.678 2.777-.678c1.146 0 2.109.286 2.891.856.781.572 1.325 1.377 1.633 2.412l-1.492.346c-.266-.816-.651-1.412-1.156-1.784-.505-.373-1.141-.56-1.906-.56-.88 0-1.616.207-2.207.62-.591.414-1.007.97-1.246 1.665-.24.697-.359 1.416-.359 2.155 0 .955.142 1.788.426 2.5.284.712.725 1.243 1.324 1.596s1.247.528 1.945.528c.849 0 1.567-.24 2.156-.721.587-.476.985-1.188 1.194-2.131zm6.867.328l1.43-.123c.067.562.225 1.022.473 1.383.247.359.631.65 1.152.873.521.222 1.106.332 1.758.332.578 0 1.088-.084 1.531-.252.442-.169.772-.399.988-.693.216-.293.324-.614.324-.961 0-.353-.104-.66-.312-.922-.208-.264-.552-.483-1.031-.662-.308-.118-.987-.301-2.039-.549-1.052-.246-1.789-.48-2.211-.699-.547-.281-.955-.629-1.223-1.045-.269-.416-.402-.881-.402-1.397 0-.565.164-1.096.492-1.589.328-.492.807-.866 1.438-1.122.63-.255 1.331-.383 2.102-.383.849 0 1.598.134 2.246.401.648.269 1.147.664 1.496 1.184.349.521.536 1.109.562 1.769l-1.453.107c-.078-.709-.343-1.245-.793-1.607-.451-.362-1.116-.544-1.996-.544-.917 0-1.585.165-2.004.494s-.629.727-.629 1.189c0 .404.148.735.445.996.292.261 1.053.526 2.285.8 1.231.272 2.077.512 2.535.716.667.301 1.159.684 1.477 1.145.317.463.477.994.477 1.596 0 .599-.175 1.16-.523 1.688-.349.528-.851.939-1.504 1.232-.654.293-1.39.44-2.207.44-1.037 0-1.905-.148-2.605-.445-.701-.295-1.25-.741-1.648-1.336-.4-.592-.61-1.266-.631-2.016zm23.656 3.606v-11.224h5.078c1.021 0 1.797.101 2.328.301.531.203.956.559 1.273 1.068s.477 1.074.477 1.692c0 .796-.263 1.468-.789 2.014s-1.339.894-2.438 1.041c.401.189.706.375.914.56.442.397.862.896 1.258 1.492l1.992 3.056h-1.906l-1.516-2.335c-.443-.674-.808-1.189-1.094-1.547-.287-.357-.543-.607-.77-.75-.227-.144-.457-.243-.691-.299-.172-.037-.453-.055-.844-.055h-1.758v4.984l-1.514.002zm1.516-6.27h3.258c.692 0 1.234-.07 1.625-.21.391-.14.688-.364.891-.674s.305-.646.305-1.007c0-.531-.197-.967-.59-1.309-.394-.343-1.015-.514-1.863-.514h-3.625l-.001 3.714zm14.047 6.27v-11.224h8.281v1.324h-6.766v3.438h6.336v1.317h-6.336v3.821h7.031v1.325l-8.546-.001zm14.578 0v-11.224h1.516v9.9h5.641v1.325l-7.157-.001zm12.992 0v-11.224h8.281v1.324h-6.766v3.438h6.336v1.317h-6.336v3.821h7.031v1.325l-8.546-.001zm13.383 0l4.398-11.224h1.633l4.688 11.224h-1.727l-1.336-3.399h-4.789l-1.258 3.399h-1.609zm3.305-4.609h3.883l-1.195-3.108c-.365-.943-.636-1.719-.812-2.328-.146.721-.352 1.435-.617 2.145l-1.259 3.291zm12.109 1.003l1.43-.123c.067.562.225 1.022.473 1.383.247.359.631.65 1.152.873.521.222 1.106.332 1.758.332.578 0 1.088-.084 1.531-.252.442-.169.772-.399.988-.693.216-.293.324-.614.324-.961 0-.353-.104-.66-.312-.922-.208-.264-.552-.483-1.031-.662-.308-.118-.987-.301-2.039-.549-1.052-.246-1.789-.48-2.211-.699-.547-.281-.955-.629-1.223-1.045-.269-.416-.402-.881-.402-1.397 0-.565.164-1.096.492-1.589.328-.492.807-.866 1.438-1.122.63-.255 1.331-.383 2.102-.383.849 0 1.598.134 2.246.401.648.269 1.147.664 1.496 1.184.349.521.536 1.109.562 1.769l-1.453.107c-.078-.709-.343-1.245-.793-1.607-.451-.362-1.116-.544-1.996-.544-.917 0-1.585.165-2.004.494s-.629.727-.629 1.189c0 .404.148.735.445.996.292.261 1.053.526 2.285.8 1.231.272 2.077.512 2.535.716.667.301 1.159.684 1.477 1.145.317.463.477.994.477 1.596 0 .599-.175 1.16-.523 1.688-.349.528-.851.939-1.504 1.232-.654.293-1.39.44-2.207.44-1.037 0-1.905-.148-2.605-.445-.701-.295-1.25-.741-1.648-1.336-.4-.592-.61-1.266-.631-2.016zm15.219 3.606v-11.224h8.281v1.324h-6.766v3.438h6.336v1.317h-6.336v3.821h7.031v1.325l-8.546-.001z"/></svg>