<svg xmlns="http://www.w3.org/2000/svg" width="612" height="792"><rect x="-354.919" y="349.271" fill="#fff" width="230" height="46.729"/><path d="M-318.166 379.335l-4.996-12.636h1.847l3.351 9.18c.27.735.496 1.425.677 2.068.199-.689.431-1.379.695-2.068l3.483-9.18h1.741l-5.048 12.636h-1.75zm12.222 0v-12.636h1.707v12.636h-1.707zm8.352 0v-12.636h9.323v1.491h-7.617v3.87h7.133v1.482h-7.133v4.301h7.916v1.491h-9.622zm17.832 0l-3.421-12.636h1.75l1.961 8.283c.211.868.393 1.729.545 2.585.328-1.35.522-2.129.581-2.335l2.454-8.533h2.058l1.847 6.396c.463 1.586.797 3.077 1.002 4.473.164-.798.378-1.715.642-2.75l2.023-8.119h1.715l-3.536 12.636h-1.645l-2.718-9.627c-.229-.804-.363-1.298-.404-1.482-.135.581-.261 1.075-.378 1.482l-2.735 9.627h-1.741zm29.913 0v-11.145h-4.248v-1.491h10.22v1.491h-4.266v11.145h-1.706zm11.351 0v-12.636h5.717c1.149 0 2.023.114 2.621.341.598.227 1.076.628 1.434 1.202.358.575.537 1.209.537 1.905 0 .896-.296 1.652-.888 2.267s-1.507 1.005-2.744 1.172c.452.213.794.422 1.029.629.499.448.971 1.008 1.416 1.681l2.243 3.439h-2.146l-1.707-2.629c-.499-.758-.909-1.339-1.231-1.741-.323-.402-.611-.684-.867-.845-.255-.161-.514-.273-.778-.336-.193-.04-.51-.06-.95-.06h-1.979v5.611h-1.707zm1.706-7.059h3.667c.78 0 1.39-.079 1.83-.237.439-.158.774-.411 1.002-.759.229-.347.343-.725.343-1.133 0-.598-.222-1.089-.664-1.474-.443-.385-1.142-.578-2.098-.578h-4.081v4.181zm13.462 7.059l4.952-12.636h1.838l5.277 12.636h-1.943l-1.504-3.827h-5.392l-1.416 3.827h-1.812zm3.72-5.189h4.371l-1.346-3.5c-.41-1.063-.715-1.937-.915-2.62-.164.81-.396 1.615-.695 2.413l-1.415 3.707zm13.603 5.189v-12.636h1.707v12.636h-1.707zm8.246 0v-12.636h1.706v11.145h6.35v1.491h-8.056zm13.725 0v-12.636h9.323v1.491h-7.617v3.87h7.133v1.482h-7.133v4.301h7.916v1.491h-9.622zm15.608 0v-12.636h5.717c1.149 0 2.023.114 2.621.341.598.227 1.076.628 1.434 1.202.358.575.537 1.209.537 1.905 0 .896-.296 1.652-.888 2.267s-1.507 1.005-2.744 1.172c.452.213.794.422 1.029.629.499.448.971 1.008 1.416 1.681l2.243 3.439h-2.146l-1.707-2.629c-.499-.758-.909-1.339-1.231-1.741-.323-.402-.611-.684-.867-.845-.255-.161-.514-.273-.778-.336-.193-.04-.51-.06-.95-.06h-1.979v5.611h-1.707zm1.706-7.059h3.667c.78 0 1.39-.079 1.83-.237.439-.158.774-.411 1.002-.759.229-.347.343-.725.343-1.133 0-.598-.222-1.089-.664-1.474-.443-.385-1.142-.578-2.098-.578h-4.081v4.181z" fill="#010101"/></svg>